<?xml version="1.0" encoding="UTF-8"?>
<svg version="1.1" xmlns="http://www.w3.org/2000/svg" width="242" height="191">
<path d="M0 0 C79.86 0 159.72 0 242 0 C242 63.03 242 126.06 242 191 C162.14 191 82.28 191 0 191 C0 127.97 0 64.94 0 0 Z " fill="#060606" transform="translate(0,0)"/>
<path d="M0 0 C79.86 0 159.72 0 242 0 C242 63.03 242 126.06 242 191 C162.14 191 82.28 191 0 191 C0 127.97 0 64.94 0 0 Z M208.3125 29.875 C207.35794922 29.95363281 206.40339844 30.03226563 205.41992188 30.11328125 C200.99424147 30.50493438 196.69891815 31.01203607 192.359375 31.97265625 C184.98608968 33.54172064 177.43814646 33.95018582 169.9375 34.5625 C167.66082351 34.74975911 165.38435588 34.93871952 163.10829163 35.13328552 C161.06728609 35.30765432 159.02571905 35.47541329 156.98413086 35.64282227 C154.12016157 35.67381844 154.12016157 35.67381844 153 37 C151.60013525 37.21376514 150.19138317 37.37022604 148.78125 37.5 C147.50701172 37.62375 147.50701172 37.62375 146.20703125 37.75 C143.5 38 143.5 38 140.79296875 38.25 C139.94347656 38.3325 139.09398437 38.415 138.21875 38.5 C137.43435547 38.5721875 136.64996094 38.644375 135.84179688 38.71875 C133.98657271 38.81600626 133.98657271 38.81600626 133 40 C131.29342053 40.28457037 129.57672543 40.50872864 127.8581543 40.70849609 C126.75196747 40.83897842 125.64578064 40.96946075 124.506073 41.10389709 C123.2910611 41.24234543 122.07604919 41.38079376 120.82421875 41.5234375 C118.9395842 41.74240944 118.9395842 41.74240944 117.01687622 41.96580505 C113.6117964 42.3594333 110.20627024 42.74857078 106.80035782 43.13489151 C104.69481272 43.37416897 102.58949254 43.61534127 100.48422241 43.85702515 C82.54336481 45.91385581 64.60342935 47.8435925 46.58666992 49.11279297 C40.30649157 49.56885777 34.27122764 50.20331902 28.12036133 51.56079102 C25.23738329 52.15796747 22.37301698 52.38261826 19.4375 52.5625 C15.90382301 52.49554338 15.90382301 52.49554338 13 54 C12.90445601 55.42946471 12.87811562 56.86362665 12.87974548 58.29627991 C12.87837082 59.22321152 12.87699615 60.15014313 12.87557983 61.10516357 C12.87917511 62.13014954 12.88277039 63.1551355 12.88647461 64.21118164 C12.88632858 65.28422043 12.88618256 66.35725922 12.8860321 67.46281433 C12.88673176 71.02861516 12.89452662 74.59436449 12.90234375 78.16015625 C12.90420774 80.62495393 12.90563173 83.08975199 12.90663147 85.55455017 C12.91045813 92.05653905 12.92028968 98.55850575 12.93133545 105.06048584 C12.94208252 111.68940817 12.94612841 118.31833693 12.95117188 124.94726562 C12.96191181 137.96485324 12.97879903 150.98242544 13 164 C39.12625708 162.02176326 65.25924136 159.47407425 91.08203125 154.94140625 C98.05366895 153.76050323 105.04042005 153.28042907 112.08789062 152.7890625 C116.85727483 152.43004331 121.49756487 151.96223061 126.19140625 151.03125 C132.93989234 149.72731137 139.74618958 149.22409805 146.58786011 148.68191528 C148.92116608 148.49632803 151.25370076 148.30284748 153.58618164 148.10717773 C159.1726692 147.63929352 164.75958871 147.17741627 170.34814453 146.73486328 C180.5084878 145.92729441 190.27304106 144.65886359 200.23144531 142.46777344 C208.22790245 140.78480921 216.25225773 140.14599784 224.39575195 139.59570312 C225.3724585 139.52931641 226.34916504 139.46292969 227.35546875 139.39453125 C228.22840576 139.34143799 229.10134277 139.28834473 230.00073242 139.23364258 C231.99688963 139.20986048 231.99688963 139.20986048 233 138 C233.09550698 136.58321089 233.12188483 135.16168759 233.12025452 133.74168396 C233.12162918 132.8231665 233.12300385 131.90464905 233.12442017 130.95829773 C233.12082489 129.94266251 233.11722961 128.92702728 233.11352539 127.88061523 C233.11374443 126.28568741 233.11374443 126.28568741 233.1139679 124.65853882 C233.11326825 121.12520342 233.10547343 117.59192 233.09765625 114.05859375 C233.09579225 111.61621632 233.09436827 109.17383851 233.09336853 106.73146057 C233.08954189 100.28865536 233.07971037 93.84587252 233.06866455 87.40307617 C233.05845356 80.83447574 233.05387158 74.2658717 233.04882812 67.69726562 C233.03808823 54.79816751 233.02120104 41.89908494 233 29 C230.95728559 28.98999116 228.91455667 28.98292144 226.87182617 28.97705078 C225.73428391 28.97279083 224.59674164 28.96853088 223.42472839 28.96414185 C218.36138234 29.01715692 213.35253747 29.41336977 208.3125 29.875 Z " fill="#FDFDFD" transform="translate(0,0)"/>
<path d="M0 0 C3.27748867 2.91908703 5.88646503 5.97654431 8.3125 9.625 C8.82425781 10.38039063 9.33601563 11.13578125 9.86328125 11.9140625 C11 14 11 14 11 17 C11.66 17 12.32 17 13 17 C15.72398877 27.38520719 15.53111466 36.58175127 13 47 C12.34 47 11.68 47 11 47 C10.7834375 48.85625 10.7834375 48.85625 10.5625 50.75 C10.30216119 52.98147549 10.03250842 54.90812837 9.28125 57.03125 C8.76930728 59.09495688 8.76930728 59.09495688 10.21484375 60.921875 C11.06755859 61.82679688 11.06755859 61.82679688 11.9375 62.75 C12.50339844 63.36359375 13.06929688 63.9771875 13.65234375 64.609375 C14.09707031 65.06828125 14.54179688 65.5271875 15 66 C13.09746676 70.13868605 10.71163219 73.31479449 7 76 C3.43245682 76.16988301 2.34099448 75.30413021 -0.3125 72.9375 C-0.869375 72.298125 -1.42625 71.65875 -2 71 C-6.77596272 72.7966287 -11.2434761 75.12938436 -15.74023438 77.52148438 C-21.99210678 80.73966132 -27.54733999 81.16521146 -34.5 81.25 C-35.7684375 81.27578125 -37.036875 81.3015625 -38.34375 81.328125 C-42.28275623 80.97462444 -44.58153884 79.91626414 -48 78 C-49.28541803 77.6041108 -50.57662318 77.22606326 -51.875 76.875 C-57.38784768 74.87896894 -60.48770608 70.49573622 -64 66 C-64.78375 65.071875 -65.5675 64.14375 -66.375 63.1875 C-71.74867729 52.64682532 -71.80153791 36.77013442 -68.375 25.5625 C-63.35269629 12.55737671 -53.89741685 2.72210582 -41.35546875 -3.26171875 C-27.39613173 -8.70414153 -12.94827551 -7.35117612 0 0 Z " fill="#F5F5F5" transform="translate(95,67)"/>
<path d="M0 0 C0.66 0 1.32 0 2 0 C4.15537041 5.2852434 6.25359981 10.58999949 8.25 15.9375 C8.58515625 16.83339844 8.9203125 17.72929688 9.265625 18.65234375 C10 21 10 21 10 24 C10.66 24 11.32 24 12 24 C12.95357432 26.38393579 13.90695716 28.76794557 14.859375 31.15234375 C15.57448172 32.93766155 16.29274245 34.72172274 17.015625 36.50390625 C18.77307675 40.84871752 20.43938995 45.20530356 22 49.625 C23.17261429 52.90372151 24.43432117 55.98567536 26.0625 59.0625 C28.042226 62.82088608 29.136213 66.65801973 30.2734375 70.73828125 C31.13763328 73.42843907 32.52094739 75.60534339 34 78 C34 79.32 34 80.64 34 82 C29.05 82.33 24.1 82.66 19 83 C18.01 80.36 17.02 77.72 16 75 C11.93711107 75.30757077 7.87477392 75.62191839 3.8125 75.9375 C2.66201172 76.02451172 1.51152344 76.11152344 0.32617188 76.20117188 C-0.78564453 76.28818359 -1.89746094 76.37519531 -3.04296875 76.46484375 C-4.06414795 76.543396 -5.08532715 76.62194824 -6.13745117 76.70288086 C-9.37495542 76.9936697 -9.37495542 76.9936697 -14 78 C-14.99 81.3 -15.98 84.6 -17 88 C-22.08086796 88.84681133 -26.84828377 89.09038099 -32 89 C-31.04814224 81.72977607 -28.65043924 75.88567135 -25.453125 69.3203125 C-23.64109915 65.17993086 -22.63048459 61.07478085 -21.73828125 56.65625 C-20.91954034 53.71051552 -19.59103348 51.59868801 -18 49 C-17.37880463 47.24889371 -16.81347915 45.47671123 -16.3125 43.6875 C-15.93544922 42.36298828 -15.93544922 42.36298828 -15.55078125 41.01171875 C-15.36902344 40.34785156 -15.18726563 39.68398437 -15 39 C-14.34 39 -13.68 39 -13 39 C-12.896875 38.030625 -12.79375 37.06125 -12.6875 36.0625 C-12.04762079 31.50915661 -10.53886684 27.31551787 -9 23 C-8.67 22.01 -8.34 21.02 -8 20 C-7.34 20 -6.68 20 -6 20 C-5.83564453 19.18208984 -5.83564453 19.18208984 -5.66796875 18.34765625 C-4.35393371 12.09797741 -2.87091795 5.74183591 0 0 Z " fill="#F4F4F4" transform="translate(150,51)"/>
<path d="M0 0 C0 4.29 0 8.58 0 13 C-2.97 13 -5.94 13 -9 13 C-9 32.47 -9 51.94 -9 72 C-6.03 72 -3.06 72 0 72 C0 76.29 0 80.58 0 85 C-1.54429687 85.13277344 -3.08859375 85.26554687 -4.6796875 85.40234375 C-6.74479471 85.58069392 -8.80989871 85.75908132 -10.875 85.9375 C-11.88820312 86.02451172 -12.90140625 86.11152344 -13.9453125 86.20117188 C-20.30252142 86.75131496 -26.65208918 87.35118039 -33 88 C-33 83.71 -33 79.42 -33 75 C-30.03 75 -27.06 75 -24 75 C-24 55.53 -24 36.06 -24 16 C-26.97 16 -29.94 16 -33 16 C-33 11.71 -33 7.42 -33 3 C-29.18831652 2.49298272 -25.37584881 1.99419932 -21.5625 1.5 C-20.49322266 1.35691406 -19.42394531 1.21382812 -18.32226562 1.06640625 C-12.15456951 0.2742251 -6.2177959 -0.15691598 0 0 Z " fill="#F0F0F0" transform="translate(222,44)"/>
<path d="M0 0 C0.66 0 1.32 0 2 0 C3.48046875 1.5390625 3.48046875 1.5390625 5.1875 3.625 C7.98742834 6.92553923 10.86264128 9.76471771 14.2265625 12.48046875 C16.06071267 14.05202033 17.75600915 15.72730216 19.45214844 17.44555664 C21.35035759 19.35184965 23.2791225 21.22531695 25.20703125 23.1015625 C26.74235178 24.60920772 28.27750416 26.1170242 29.8125 27.625 C30.60076172 28.388125 31.38902344 29.15125 32.20117188 29.9375 C32.94560547 30.67226562 33.69003906 31.40703125 34.45703125 32.1640625 C35.13741455 32.82873535 35.81779785 33.4934082 36.51879883 34.17822266 C38 36 38 36 38 39 C35.09399739 40.25664978 33.20395416 41 30 41 C30 41.66 30 42.32 30 43 C23.27529585 44.53002443 16.13921951 45.08445765 9.5625 42.8125 C3.84361532 38.76743523 -1.74204017 33.16094407 -3.8125 26.3125 C-4.320346 17.34055394 -4.42537906 9.46583321 -1 1 C-0.67 0.67 -0.34 0.34 0 0 Z " fill="#080808" transform="translate(43,90)"/>
<path d="M0 0 C3.86758027 3.25640709 6.76635171 7.44048461 7.53735352 12.46948242 C7.65135811 14.95027259 7.6357869 17.39288845 7.5625 19.875 C7.56121094 20.71611328 7.55992188 21.55722656 7.55859375 22.42382812 C7.49859948 26.62676038 7.29076187 29.46824067 5.1875 33.1875 C1.71062179 32.60460597 0.07275945 31.44087803 -2.38769531 28.95288086 C-3.06809875 28.27225082 -3.7485022 27.59162079 -4.44952393 26.8903656 C-5.17258728 26.15181839 -5.89565063 25.41327118 -6.640625 24.65234375 C-7.38963074 23.89909317 -8.13863647 23.14584259 -8.91033936 22.36976624 C-11.30152044 19.96178956 -13.68206165 17.54359255 -16.0625 15.125 C-17.68160177 13.49085262 -19.30138532 11.85738045 -20.921875 10.22460938 C-24.89336182 6.22004154 -28.8561621 2.20703193 -32.8125 -1.8125 C-23.83502711 -11.30334396 -9.264158 -7.33658372 0 0 Z " fill="#0C0C0C" transform="translate(87.8125,81.8125)"/>
<path d="M0 0 C3.38480812 2.9582104 4.68439509 5.21127994 5.75 9.5625 C6.11351562 10.98755859 6.11351562 10.98755859 6.484375 12.44140625 C7 15 7 15 7 18 C7.66 18 8.32 18 9 18 C10.49821059 21.37097383 11 23.20442119 11 27 C4.25846717 28.25841946 -2.13484138 29.26404456 -9 29 C-8.125 21.375 -8.125 21.375 -7 18 C-6.34 18 -5.68 18 -5 18 C-4.83564453 16.80503906 -4.83564453 16.80503906 -4.66796875 15.5859375 C-3.81008432 9.8527586 -3.03978343 4.97419107 0 0 Z " fill="#111111" transform="translate(150,87)"/>
<path d="M0 0 C1.17357056 0.00133942 2.34714111 0.00267883 3.55627441 0.00405884 C4.4522937 0.00578094 5.34831299 0.00750305 6.27148438 0.00927734 C6.29481467 14.20383776 6.31239778 28.39839522 6.32329655 42.59297085 C6.3285261 49.1833252 6.33562504 55.77366671 6.34692383 62.36401367 C6.35775016 68.71819752 6.36376067 75.07236899 6.36636162 81.42656136 C6.36821633 83.85677345 6.37183781 86.28698484 6.37721443 88.7171917 C6.38442148 92.10810716 6.38547546 95.49897075 6.38500977 98.88989258 C6.38860504 99.9055278 6.39220032 100.92116302 6.39590454 101.96757507 C6.39452988 102.88609253 6.39315521 103.80460999 6.39173889 104.7509613 C6.39266068 105.55384299 6.39358248 106.35672468 6.3945322 107.18393612 C6.27148438 109.00927734 6.27148438 109.00927734 5.27148438 110.00927734 C3.41860936 110.08154236 1.5631456 110.09308954 -0.29101562 110.07177734 C-1.30292969 110.06275391 -2.31484375 110.05373047 -3.35742188 110.04443359 C-4.13988281 110.03283203 -4.92234375 110.02123047 -5.72851562 110.00927734 C-1.95491018 107.68705861 -0.71652151 108.00927734 4.27148438 108.00927734 C4.27148438 72.69927734 4.27148438 37.38927734 4.27148438 1.00927734 C-15.32098862 2.8984077 -15.32098862 2.8984077 -34.72851562 6.00927734 C-37.64688109 6.13660568 -40.44741602 6.20596481 -43.35351562 6.13427734 C-44.43052734 6.12074219 -44.43052734 6.12074219 -45.52929688 6.10693359 C-47.26252142 6.08382393 -48.99556912 6.04797838 -50.72851562 6.00927734 C-50.72851562 5.67927734 -50.72851562 5.34927734 -50.72851562 5.00927734 C-49.57996094 4.88810547 -48.43140625 4.76693359 -47.24804688 4.64208984 C-40.11286609 3.87636689 -33.0006088 3.10433372 -25.91601562 1.94677734 C-17.2785813 0.57042332 -8.74261089 -0.01293286 0 0 Z " fill="#414141" transform="translate(226.728515625,28.99072265625)"/>
<path d="M0 0 C0 0.33 0 0.66 0 1 C-14.69167218 4.42197333 -28.69595452 4.90685389 -44 6 C-44 41.64 -44 77.28 -44 114 C-42.02 114 -40.04 114 -38 114 C-38 114.33 -38 114.66 -38 115 C-40.31 115 -42.62 115 -45 115 C-45.0233302 100.67505574 -45.04091336 86.35011441 -45.05181217 72.02515507 C-45.05704174 65.3742647 -45.06414072 58.72339214 -45.07543945 52.07250977 C-45.08626571 45.65997123 -45.09227628 39.24744496 -45.09487724 32.83489799 C-45.09673197 30.38235722 -45.10035347 27.92981715 -45.10573006 25.47728157 C-45.11293702 22.05523323 -45.11399109 18.63323629 -45.11352539 15.21118164 C-45.11712067 14.18619568 -45.12071594 13.16120972 -45.12442017 12.10516357 C-45.1230455 11.17823196 -45.12167084 10.25130035 -45.12025452 9.29627991 C-45.12117631 8.48602387 -45.1220981 7.67576784 -45.12304783 6.8409586 C-45 5 -45 5 -44 4 C-42.62369507 3.78614739 -41.23832803 3.62972874 -39.8515625 3.5 C-38.59085938 3.37625 -38.59085938 3.37625 -37.3046875 3.25 C-36.42039062 3.1675 -35.53609375 3.085 -34.625 3 C-32.88772071 2.83649136 -31.15072364 2.66994849 -29.4140625 2.5 C-28.25318115 2.39171875 -28.25318115 2.39171875 -27.06884766 2.28125 C-24.80787985 2.03904441 -24.80787985 2.03904441 -22 1 C-14.68332815 0.24694991 -7.35363476 -0.1470727 0 0 Z " fill="#636363" transform="translate(58,49)"/>
<path d="M0 0 C0 0.33 0 0.66 0 1 C-0.98742187 1.13277344 -1.97484375 1.26554687 -2.9921875 1.40234375 C-4.27351563 1.57894531 -5.55484375 1.75554688 -6.875 1.9375 C-8.15117187 2.11152344 -9.42734375 2.28554688 -10.7421875 2.46484375 C-13.87559454 2.81433227 -13.87559454 2.81433227 -16 4 C-24.31243129 5.28986003 -32.61268549 5.09262065 -41 5 C-41 4.67 -41 4.34 -41 4 C-40.42967041 3.94465088 -39.85934082 3.88930176 -39.27172852 3.83227539 C-36.70151247 3.58026257 -34.13202369 3.32147272 -31.5625 3.0625 C-30.21575195 2.93198242 -30.21575195 2.93198242 -28.84179688 2.79882812 C-27.56079102 2.66831055 -27.56079102 2.66831055 -26.25390625 2.53515625 C-25.06776733 2.41732788 -25.06776733 2.41732788 -23.85766602 2.29711914 C-21.98896652 2.18448501 -21.98896652 2.18448501 -21 1 C-14.0260994 0.17050521 -7.01832601 -0.13761424 0 0 Z " fill="#686868" transform="translate(175,35)"/>
<path d="M0 0 C0 0.33 0 0.66 0 1 C-12.00312496 3.66549842 -23.72018232 4.63512837 -36 5 C-25.30042266 -0.50906679 -11.79285315 -0.23585706 0 0 Z " fill="#6C6C6C" transform="translate(58,49)"/>
<path d="M0 0 C0 0.33 0 0.66 0 1 C-13.10854137 3.59138357 -25.60800269 5.699727 -39 5 C-39 4.67 -39 4.34 -39 4 C-37.85144531 3.87882812 -36.70289063 3.75765625 -35.51953125 3.6328125 C-28.27680433 2.85518552 -21.06498555 2.06062777 -13.875 0.875 C-9.16409822 0.11074724 -4.76582421 -0.18689507 0 0 Z " fill="#686868" transform="translate(215,30)"/>
<path d="M0 0 C1.22596039 3.67788118 0.84310077 4.78449613 0 9 C8.415 8.505 8.415 8.505 17 8 C17.33 7.01 17.66 6.02 18 5 C18 6.32 18 7.64 18 9 C11.25846717 10.25841946 4.86515862 11.26404456 -2 11 C-1.125 3.375 -1.125 3.375 0 0 Z " fill="#686868" transform="translate(143,105)"/>
<path d="M0 0 C-1.44781793 3.44428265 -3.27694609 5.36130962 -6.125 7.75 C-7.21167969 8.67039062 -7.21167969 8.67039062 -8.3203125 9.609375 C-8.87460937 10.06828125 -9.42890625 10.5271875 -10 11 C-10 8 -10 8 -8.3203125 5.95703125 C-7.23363281 4.89548828 -7.23363281 4.89548828 -6.125 3.8125 C-5.40570313 3.09707031 -4.68640625 2.38164063 -3.9453125 1.64453125 C-2 0 -2 0 0 0 Z " fill="#C7C7C7" transform="translate(44,71)"/>
</svg>
